<?xml version="1.0" encoding="UTF-8"?><svg id="_レイヤー_2" xmlns="http://www.w3.org/2000/svg" viewBox="0 0 200 41.09"><g id="_トップページ"><g><path d="m4.47,29.29c2.5,0,4.43,2.02,4.43,4.52s-1.93,4.57-4.43,4.57-4.47-2.03-4.47-4.56c0-2.92,2.38-4.53,4.47-4.53Zm-.01,8.52c2.22.01,3.75-1.84,3.75-3.99s-1.5-3.97-3.74-3.97c-2.11,0-3.78,1.71-3.78,4.01s1.73,3.95,3.77,3.95Zm2.07-1.71c-.52.35-1.2.47-1.81.47-1.71,0-2.7-1.17-2.7-2.67,0-1.71,1.33-2.75,2.8-2.75.77,0,1.42.23,1.62.39l-.16.55c-.21-.1-.72-.35-1.43-.35-1.42,0-2.11.94-2.11,2.12s.74,2.12,2.12,2.12c.6,0,1.15-.18,1.5-.4l.17.52Z"/><path d="m17.26,29.31v1.24h-1.61v7.88h-1.3v-7.88h-1.62v-1.24h4.53Z"/><path d="m18.23,29.31h1.3v3.18c.12-.14.26-.27.43-.38.23-.14.48-.25.86-.25s.7.1.96.38c.34.35.38.78.38,1.09v5.1h-1.3v-4.57c0-.16-.01-.35-.17-.52-.12-.13-.26-.2-.46-.2-.25,0-.4.12-.5.21-.2.21-.21.44-.21.65v4.43h-1.3v-9.12Z"/><path d="m24.82,36.52c0,.2.01.4.17.56.1.12.29.18.5.18.22,0,.39-.08.52-.27.08-.13.12-.3.12-.44h1.3v.05c0,.48-.09,1.12-.73,1.58-.33.23-.77.36-1.21.36-.6,0-1.16-.25-1.5-.63-.46-.51-.47-1.17-.47-1.56v-2.48c0-.46.09-1.09.64-1.56.3-.26.74-.44,1.29-.44s1.03.18,1.36.47c.57.5.65,1.15.65,1.65v1.69h-2.63v.83Zm1.33-1.84v-.85c0-.17-.03-.35-.18-.51-.1-.1-.27-.18-.48-.18-.22,0-.4.09-.51.22-.13.16-.16.35-.16.52v.79h1.33Z"/><path d="m33.16,29.31l2.18,5.73v-5.73h1.3v9.12h-1.3l-2.18-5.73v5.73h-1.3v-9.12h1.3Z"/><path d="m40.69,37.8h-.03c-.09.14-.26.35-.44.5-.25.2-.48.25-.76.25s-.66-.04-.99-.34c-.4-.38-.47-.96-.47-1.49,0-.47.03-1.17.4-1.62.43-.51,1.16-.56,1.54-.56.09,0,.34,0,.74.04v-.68c0-.18-.01-.38-.17-.55-.13-.14-.33-.21-.52-.21-.18,0-.38.06-.52.23-.09.1-.16.25-.17.42h-1.24c-.01-.59.23-1.09.53-1.39.33-.33.86-.53,1.46-.53s1.07.21,1.39.52c.47.47.53,1.08.53,1.52v4.52h-1.3v-.64Zm0-2.18c-.16-.03-.31-.04-.46-.04-.21,0-.52.03-.73.27-.17.2-.2.47-.2.68,0,.18.03.37.13.53.13.21.3.3.52.3.39,0,.73-.26.73-.83v-.91Z"/><path d="m44.86,30v1.97h.83v1.04h-.83v3.55c0,.13.01.4.18.55.14.12.36.12.48.12h.17v1.21h-.35c-.38,0-1-.01-1.41-.46-.36-.39-.38-.91-.38-1.3v-3.66h-.66v-1.04h.66v-1.97h1.3Z"/><path d="m48.03,29.49v1.28h-1.3v-1.28h1.3Zm-1.3,2.48h1.3v6.46h-1.3v-6.46Z"/><path d="m49.39,34.06c0-.51.04-1.22.64-1.73.35-.3.85-.46,1.33-.46s.98.16,1.33.46c.6.51.64,1.22.64,1.73v2.29c0,.51-.04,1.22-.64,1.73-.35.3-.85.46-1.33.46s-.98-.16-1.33-.46c-.6-.51-.64-1.22-.64-1.73v-2.29Zm2.63-.08c0-.3-.08-.52-.2-.65-.1-.1-.27-.18-.47-.18s-.37.08-.47.18c-.12.13-.2.35-.2.65v2.45c0,.3.08.52.2.65.1.11.27.18.47.18s.36-.08.47-.18c.12-.13.2-.35.2-.65v-2.45Z"/><path d="m54.68,31.97h1.3v.59c.47-.63,1.03-.69,1.29-.69.44,0,.76.16.96.38.34.35.38.78.38,1.09v5.1h-1.3v-4.57c0-.16-.01-.35-.17-.52-.12-.13-.26-.2-.46-.2-.25,0-.4.12-.5.21-.2.21-.21.44-.21.65v4.43h-1.3v-6.46Z"/><path d="m62.59,37.8h-.03c-.09.14-.26.35-.44.5-.25.2-.48.25-.76.25s-.67-.04-.99-.34c-.4-.38-.47-.96-.47-1.49,0-.47.03-1.17.4-1.62.43-.51,1.16-.56,1.54-.56.09,0,.34,0,.74.04v-.68c0-.18-.01-.38-.17-.55-.13-.14-.33-.21-.52-.21-.18,0-.38.06-.52.23-.09.1-.16.25-.17.42h-1.24c-.01-.59.23-1.09.53-1.39.33-.33.86-.53,1.46-.53s1.07.21,1.39.52c.47.47.53,1.08.53,1.52v4.52h-1.3v-.64Zm0-2.18c-.16-.03-.31-.04-.46-.04-.21,0-.52.03-.73.27-.17.2-.2.47-.2.68,0,.18.03.37.13.53.13.21.3.3.52.3.39,0,.73-.26.73-.83v-.91Z"/><path d="m66.6,29.31v7.29c0,.16.03.35.18.5.13.12.31.13.42.13h.13v1.21h-.38c-.3,0-.93-.04-1.33-.55-.31-.39-.33-.85-.33-1.22v-7.35h1.3Z"/><path d="m71.41,29.31h1.3l1.8,5.03h.05l1.71-5.03h1.3v9.12h-1.3v-5.71h-.06l-1.37,4.12h-.69l-1.37-4.12h-.07v5.71h-1.3v-9.12Z"/><path d="m82.99,38.43h-1.3v-.65s-.21.3-.46.48c-.26.18-.56.27-.9.27-.55,0-.86-.26-1.02-.48-.21-.29-.26-.68-.26-.99v-5.1h1.3v4.57c0,.18.01.39.16.55.08.08.21.17.42.17.23,0,.43-.1.55-.23.2-.21.21-.46.21-.62v-4.43h1.3v6.46Z"/><path d="m86.79,33.72c-.01-.2-.09-.37-.2-.47-.12-.12-.29-.17-.47-.17-.33,0-.64.21-.64.65,0,.12.03.27.13.42.13.18.34.27.51.34l.78.33c.33.13.65.39.83.63.18.23.33.63.33,1.19,0,.31-.06.83-.42,1.26-.27.34-.76.65-1.58.65s-1.25-.29-1.51-.57c-.33-.35-.48-.87-.48-1.34h1.3c0,.17.05.37.17.5.12.13.35.21.53.21s.38-.06.51-.22c.14-.16.17-.35.17-.52,0-.34-.1-.59-.65-.82l-.77-.33c-.5-.21-.73-.46-.81-.55-.29-.34-.35-.77-.35-1.1,0-.64.21-1.12.48-1.41.26-.26.69-.52,1.39-.52.82,0,1.29.29,1.51.52.31.31.5.82.5,1.33h-1.28Z"/><path d="m90.48,36.52c0,.2.01.4.17.56.1.12.29.18.5.18.22,0,.39-.08.52-.27.08-.13.12-.3.12-.44h1.3v.05c0,.48-.09,1.12-.73,1.58-.33.23-.77.36-1.21.36-.6,0-1.16-.25-1.5-.63-.46-.51-.47-1.17-.47-1.56v-2.48c0-.46.09-1.09.64-1.56.3-.26.74-.44,1.29-.44s1.03.18,1.35.47c.57.5.65,1.15.65,1.65v1.69h-2.63v.83Zm1.33-1.84v-.85c0-.17-.03-.35-.18-.51-.1-.1-.27-.18-.48-.18-.22,0-.4.09-.51.22-.13.16-.16.35-.16.52v.79h1.33Z"/><path d="m98.34,38.43h-1.3v-.65s-.21.3-.46.48c-.26.18-.56.27-.9.27-.55,0-.86-.26-1.02-.48-.21-.29-.26-.68-.26-.99v-5.1h1.3v4.57c0,.18.01.39.16.55.08.08.21.17.42.17.23,0,.43-.1.55-.23.2-.21.21-.46.21-.62v-4.43h1.3v6.46Z"/><path d="m101.05,31.97v.59c.12-.16.27-.3.4-.4.22-.17.51-.29.89-.29.25,0,.48.06.7.21.23.16.38.35.47.56.14-.23.34-.46.57-.59.22-.13.44-.18.72-.18.4,0,.85.06,1.17.52.26.36.29.78.29,1.12v4.93h-1.3v-4.57c0-.17-.03-.35-.17-.52-.13-.14-.27-.2-.44-.2-.2,0-.35.06-.48.21-.2.21-.21.44-.21.65v4.43h-1.3v-4.57c0-.17-.01-.34-.17-.52-.12-.13-.25-.2-.44-.2-.16,0-.33.04-.48.21-.2.21-.21.44-.21.65v4.43h-1.3v-6.46h1.3Z"/><path d="m110.65,34.06c0-.51.04-1.22.64-1.73.35-.3.85-.46,1.33-.46s.98.16,1.33.46c.6.51.64,1.22.64,1.73v2.29c0,.51-.04,1.22-.64,1.73-.35.3-.85.46-1.33.46s-.98-.16-1.33-.46c-.6-.51-.64-1.22-.64-1.73v-2.29Zm2.63-.08c0-.3-.08-.52-.2-.65-.1-.1-.27-.18-.47-.18s-.36.08-.47.18c-.12.13-.2.35-.2.65v2.45c0,.3.08.52.2.65.1.11.27.18.47.18s.37-.08.47-.18c.12-.13.2-.35.2-.65v-2.45Z"/><path d="m116.24,33.01h-.68v-1.04h.68v-.86c0-.44.04-.99.5-1.39.4-.35.94-.4,1.39-.4h.47v1.15h-.26c-.22,0-.42.01-.61.22-.17.2-.2.39-.2.63v.66h1.06v1.04h-1.04v5.42h-1.3v-5.42Z"/><path d="m122.55,29.31h1.3l1.8,5.03h.05l1.71-5.03h1.3v9.12h-1.3v-5.71h-.06l-1.37,4.12h-.69l-1.37-4.12h-.06v5.71h-1.3v-9.12Z"/><path d="m130.15,34.06c0-.51.04-1.22.64-1.73.35-.3.85-.46,1.33-.46s.98.16,1.33.46c.6.51.64,1.22.64,1.73v2.29c0,.51-.04,1.22-.64,1.73-.35.3-.85.46-1.33.46s-.98-.16-1.33-.46c-.6-.51-.64-1.22-.64-1.73v-2.29Zm2.63-.08c0-.3-.08-.52-.2-.65-.1-.1-.27-.18-.47-.18s-.36.08-.47.18c-.12.13-.2.35-.2.65v2.45c0,.3.08.52.2.65.1.11.27.18.47.18s.37-.08.47-.18c.12-.13.2-.35.2-.65v-2.45Z"/><path d="m138.07,37.86h-.01c-.1.17-.27.34-.44.46-.23.16-.53.22-.79.22-.65,0-.98-.35-1.08-.5-.29-.39-.3-.93-.3-1.34v-3.36c0-.31.04-.74.38-1.09.26-.27.59-.38.96-.38s.62.1.86.25c.17.1.31.23.43.38v-3.18h1.3v9.12h-1.3v-.57Zm0-3.86c0-.21-.01-.44-.21-.65-.09-.09-.25-.21-.5-.21-.2,0-.34.06-.46.2-.16.17-.17.37-.17.52v2.62c0,.22,0,.4.17.59.12.13.26.2.46.2.25,0,.4-.12.5-.21.2-.21.21-.44.21-.65v-2.4Z"/><path d="m142.03,36.52c0,.2.01.4.17.56.1.12.29.18.5.18.22,0,.39-.08.52-.27.08-.13.12-.3.12-.44h1.3v.05c0,.48-.09,1.12-.73,1.58-.33.23-.77.36-1.21.36-.6,0-1.16-.25-1.5-.63-.46-.51-.47-1.17-.47-1.56v-2.48c0-.46.09-1.09.64-1.56.3-.26.74-.44,1.29-.44s1.03.18,1.35.47c.57.5.65,1.15.65,1.65v1.69h-2.63v.83Zm1.33-1.84v-.85c0-.17-.03-.35-.18-.51-.1-.1-.27-.18-.48-.18-.22,0-.4.09-.51.22-.13.16-.16.35-.16.52v.79h1.33Z"/><path d="m147.25,31.97v.69h.03c.53-.65,1.25-.79,1.71-.79v1.39c-.63-.11-1.73.05-1.73,1.47v3.7h-1.3v-6.46h1.3Z"/><path d="m149.82,31.97h1.3v.59c.47-.63,1.03-.69,1.29-.69.44,0,.76.16.96.38.34.35.38.78.38,1.09v5.1h-1.3v-4.57c0-.16-.01-.35-.17-.52-.12-.13-.26-.2-.46-.2-.25,0-.4.12-.5.21-.2.21-.21.44-.21.65v4.43h-1.3v-6.46Z"/><path d="m161.46,38.43l-.43-1.95h-1.67l-.43,1.95h-1.3l1.99-9.12h1.15l1.99,9.12h-1.3Zm-1.29-6.58l-.68,3.47h1.38l-.7-3.47Z"/><path d="m164.9,31.97v.69h.03c.53-.65,1.25-.79,1.71-.79v1.39c-.63-.11-1.73.05-1.73,1.47v3.7h-1.3v-6.46h1.3Z"/><path d="m168.92,30v1.97h.83v1.04h-.83v3.55c0,.13.01.4.18.55.14.12.36.12.48.12h.17v1.21h-.35c-.38,0-1-.01-1.41-.46-.36-.39-.38-.91-.38-1.3v-3.66h-.67v-1.04h.67v-1.97h1.3Z"/><path d="m172.17,37v1.43l-1.43,1.3v-2.74h1.43Z"/><path d="m177.94,29.31v4.39l2.07-4.39h1.37l-1.85,3.74,2.19,5.38h-1.42l-1.55-4.08-.81,1.41v2.67h-1.3v-9.12h1.3Z"/><path d="m183.54,31.97l1.06,4.01h.05l.81-4.01h1.3l-1.77,7.34c-.09.38-.21,1-.6,1.38s-.9.4-1.3.4h-.34l-.03-1.21h.25c.18,0,.43-.03.61-.27.05-.06.13-.21.23-.63l.21-.85-1.89-6.16h1.41Z"/><path d="m187.5,34.06c0-.51.04-1.22.64-1.73.35-.3.85-.46,1.33-.46s.98.16,1.33.46c.6.51.64,1.22.64,1.73v2.29c0,.51-.04,1.22-.64,1.73-.35.3-.85.46-1.33.46s-.98-.16-1.33-.46c-.6-.51-.64-1.22-.64-1.73v-2.29Zm2.63-.08c0-.3-.08-.52-.2-.65-.1-.1-.27-.18-.47-.18s-.36.08-.47.18c-.12.13-.2.35-.2.65v2.45c0,.3.08.52.2.65.1.11.27.18.47.18s.37-.08.47-.18c.12-.13.2-.35.2-.65v-2.45Z"/><path d="m194.25,30v1.97h.83v1.04h-.83v3.55c0,.13.01.4.18.55.14.12.36.12.48.12h.17v1.21h-.35c-.38,0-1-.01-1.41-.46-.36-.39-.38-.91-.38-1.3v-3.66h-.67v-1.04h.67v-1.97h1.3Z"/><path d="m196.06,34.06c0-.51.04-1.22.64-1.73.35-.3.85-.46,1.33-.46s.98.16,1.33.46c.6.51.64,1.22.64,1.73v2.29c0,.51-.04,1.22-.64,1.73-.35.3-.85.46-1.33.46s-.98-.16-1.33-.46c-.6-.51-.64-1.22-.64-1.73v-2.29Zm2.63-.08c0-.3-.08-.52-.2-.65-.1-.1-.27-.18-.47-.18s-.36.08-.47.18c-.12.13-.2.35-.2.65v2.45c0,.3.08.52.2.65.1.11.27.18.47.18s.37-.08.47-.18c.12-.13.2-.35.2-.65v-2.45Z"/></g><g><path d="m64.17,23.44V0h3.23l4.31,12.41h.07l4.28-12.41h3.26v23.44h-3.36v-14.25h-.07l-3.32,10.07h-1.68l-3.29-10.07h-.07v14.25h-3.36Z"/><path d="m81.98,12.35c0-.68.04-1.31.13-1.88.09-.57.25-1.08.49-1.51.39-.72.96-1.31,1.69-1.74.74-.44,1.63-.66,2.68-.66s1.95.22,2.68.66c.73.44,1.3,1.02,1.69,1.74.24.44.41.94.49,1.51s.13,1.2.13,1.88v5.5c0,.68-.04,1.31-.13,1.88-.09.57-.25,1.08-.49,1.51-.39.72-.96,1.31-1.69,1.74-.74.44-1.63.66-2.68.66s-1.95-.22-2.68-.66c-.73-.44-1.3-1.02-1.69-1.74-.24-.44-.41-.94-.49-1.51-.09-.57-.13-1.2-.13-1.88v-5.5Zm3.36,6.02c0,.64.15,1.11.44,1.43.3.32.7.48,1.2.48s.9-.16,1.2-.48c.3-.32.44-.79.44-1.43v-6.55c0-.64-.15-1.11-.44-1.43-.3-.32-.7-.48-1.2-.48s-.91.16-1.2.48c-.3.32-.44.8-.44,1.43v6.55Z"/><path d="m94.65,23.44V0h3.23l4.31,12.41h.07l4.28-12.41h3.26v23.44h-3.36v-14.25h-.07l-3.32,10.07h-1.68l-3.29-10.07h-.07v14.25h-3.36Z"/><path d="m111.44,23.44L116.68,0h2.8l5.23,23.44h-3.36l-.99-5.04h-4.58l-.99,5.04h-3.36Zm8.3-8.2l-1.65-8.49h-.07l-1.65,8.49h3.36Z"/><path d="m126.36,23.44V0h3.36v10.7h.07l4.9-10.7h3.36l-4.58,9.38,5.43,14.06h-3.56l-3.82-10.4-1.81,3.39v7.01h-3.36Z"/></g></g></svg>