<?xml version="1.0" encoding="UTF-8"?><svg id="_レイヤー_2" xmlns="http://www.w3.org/2000/svg" viewBox="0 0 458.15 100.53"><g id="_トップページ"><g><path d="m10.69,71.6v2.21h-4.16v20.19h-2.4v-20.19H0v-2.21h10.69Z"/><path d="m13.47,71.6h2.4v8.1c1.02-1.38,2.34-1.82,3.42-1.82,2.82,0,3.33,2.14,3.33,3.68v12.45h-2.4v-11.33c0-1.22-.48-2.46-2.02-2.46-1.95,0-2.34,1.92-2.34,2.91v10.88h-2.4v-22.4Z"/><path d="m33.12,89.55h2.4v.22c0,1.57-.74,4.48-4.42,4.48-3.97,0-4.64-3.23-4.64-4.61v-7.36c0-1.25.67-4.42,4.48-4.42s4.64,3.17,4.64,4.54v4.54h-6.72v2.53c0,1.7.77,2.43,2.24,2.43s2.02-.86,2.02-2.18v-.19Zm.06-4.38v-2.72c0-1.02-.48-2.24-2.14-2.24s-2.18,1.38-2.18,2.37v2.59h4.32Z"/><path d="m49.34,71.6l6.34,16.67v-16.67h2.4v22.4h-2.4l-6.34-16.35v16.35h-2.4v-22.4h2.4Z"/><path d="m68.83,92.43h-.03c-.8.93-1.57,1.82-3.58,1.82-2.53,0-3.26-1.92-3.26-4.45,0-3.36,1.09-5.25,4.64-5.25.35,0,.86,0,2.24.13v-2.34c0-.9-.64-2.14-2.24-2.14-.83,0-1.92.38-2.18,1.95h-2.3c0-2.69,2.05-4.29,4.64-4.29,3.68,0,4.48,2.72,4.48,4.77v11.36h-2.4v-1.57Zm0-5.98c-.67-.1-1.25-.16-1.63-.16-1.38,0-2.85.74-2.85,3.07s.67,2.85,2.05,2.85c.99,0,2.43-1.31,2.43-2.98v-2.78Z"/><path d="m78.01,73.3v4.83h2.24v1.92h-2.24v9.63c0,.38.03,1.25.64,1.76.45.38,1.12.38,1.5.38h.26v2.18h-.7c-.9,0-2.4-.03-3.26-.99-.8-.86-.83-2.11-.83-3.04v-9.92h-1.7v-1.92h1.7v-4.83h2.4Z"/><path d="m85.76,72.05v2.34h-2.4v-2.34h2.4Zm-2.4,6.08h2.4v15.87h-2.4v-15.87Z"/><path d="m89.59,82.35c0-1.18.67-4.48,4.58-4.48s4.58,3.3,4.58,4.45v7.39c0,1.28-.67,4.54-4.58,4.54s-4.58-3.26-4.58-4.54v-7.36Zm6.75.45c0-1.76-.99-2.59-2.18-2.59s-2.18.83-2.18,2.59v6.53c0,1.66.77,2.59,2.18,2.59s2.18-.86,2.18-2.59v-6.53Z"/><path d="m102.59,78.13h2.4v1.57c1.02-1.38,2.34-1.82,3.42-1.82,2.82,0,3.33,2.14,3.33,3.68v12.45h-2.4v-11.33c0-1.22-.48-2.46-2.02-2.46-1.95,0-2.34,1.92-2.34,2.91v10.88h-2.4v-15.87Z"/><path d="m122.3,92.43h-.03c-.8.93-1.57,1.82-3.58,1.82-2.53,0-3.26-1.92-3.26-4.45,0-3.36,1.09-5.25,4.64-5.25.35,0,.86,0,2.24.13v-2.34c0-.9-.64-2.14-2.24-2.14-.83,0-1.92.38-2.18,1.95h-2.3c0-2.69,2.05-4.29,4.64-4.29,3.68,0,4.48,2.72,4.48,4.77v11.36h-2.4v-1.57Zm0-5.98c-.67-.1-1.25-.16-1.63-.16-1.38,0-2.85.74-2.85,3.07s.67,2.85,2.05,2.85c.99,0,2.43-1.31,2.43-2.98v-2.78Z"/><path d="m131.07,71.6v18.43c0,.64.29,1.76,1.76,1.76h.35v2.21h-.74c-2.43,0-3.78-1.44-3.78-3.52v-18.88h2.4Z"/><path d="m143.58,71.6h2.43l4.7,14.02h.1l4.51-14.02h2.43v22.4h-2.4v-15.17h-.1l-4,11.39h-1.18l-4-11.39h-.1v15.17h-2.4v-22.4Z"/><path d="m171.06,94h-2.4v-1.57c-1.02,1.38-2.34,1.82-3.42,1.82-2.82,0-3.33-2.14-3.33-3.68v-12.45h2.4v11.33c0,1.22.48,2.46,2.02,2.46,1.95,0,2.34-1.92,2.34-2.91v-10.88h2.4v15.87Z"/><path d="m181.14,82.32c-.16-1.79-1.15-2.18-2.14-2.18-1.18,0-2.05.45-2.05,2.05,0,1.25.86,1.76,1.89,2.24l1.98.96c1.47.74,2.72,1.66,2.72,4.32,0,1.31-.48,4.54-4.64,4.54-3.55,0-4.58-2.34-4.64-4.54h2.43c.13,1.7.9,2.3,2.14,2.3,1.66,0,2.3-.93,2.3-2.3,0-1.18-.38-1.79-2.02-2.59l-1.95-.96c-2.34-1.12-2.62-2.56-2.62-4.19,0-2.14,1.41-4.1,4.58-4.1,3.49,0,4.35,2.46,4.42,4.45h-2.4Z"/><path d="m193.43,89.55h2.4v.22c0,1.57-.74,4.48-4.42,4.48-3.97,0-4.64-3.23-4.64-4.61v-7.36c0-1.25.67-4.42,4.48-4.42s4.64,3.17,4.64,4.54v4.54h-6.72v2.53c0,1.7.77,2.43,2.24,2.43s2.02-.86,2.02-2.18v-.19Zm.06-4.38v-2.72c0-1.02-.48-2.24-2.14-2.24s-2.18,1.38-2.18,2.37v2.59h4.32Z"/><path d="m208.76,94h-2.4v-1.57c-1.02,1.38-2.34,1.82-3.42,1.82-2.82,0-3.33-2.14-3.33-3.68v-12.45h2.4v11.33c0,1.22.48,2.46,2.02,2.46,1.95,0,2.34-1.92,2.34-2.91v-10.88h2.4v15.87Z"/><path d="m215.12,78.13v1.57c1.15-1.5,2.43-1.82,3.39-1.82,1.54,0,2.4.58,3.14,1.82,1.12-1.41,2.08-1.82,3.46-1.82,2.21,0,3.26,1.5,3.26,3.74v12.38h-2.4v-11.33c0-1.38-.58-2.46-2.02-2.46s-2.21,1.38-2.21,2.91v10.88h-2.4v-11.33c0-.99-.38-2.46-1.98-2.46s-2.24,1.44-2.24,2.91v10.88h-2.4v-15.87h2.4Z"/><path d="m239.67,82.35c0-1.18.67-4.48,4.58-4.48s4.58,3.3,4.58,4.45v7.39c0,1.28-.67,4.54-4.58,4.54s-4.58-3.26-4.58-4.54v-7.36Zm6.75.45c0-1.76-.99-2.59-2.18-2.59s-2.18.83-2.18,2.59v6.53c0,1.66.77,2.59,2.18,2.59s2.18-.86,2.18-2.59v-6.53Z"/><path d="m253.43,80.05h-1.73v-1.92h1.73v-2.4c0-2.34.8-4.13,4.35-4.13h.74v2.08h-.67c-1.25,0-2.05.64-2.05,2.18v2.27h2.69v1.92h-2.66v13.95h-2.4v-13.95Z"/><path d="m268.63,71.6h2.43l4.7,14.02h.1l4.51-14.02h2.43v22.4h-2.4v-15.17h-.1l-4,11.39h-1.18l-4-11.39h-.1v15.17h-2.4v-22.4Z"/><path d="m286.83,82.35c0-1.18.67-4.48,4.58-4.48s4.58,3.3,4.58,4.45v7.39c0,1.28-.67,4.54-4.58,4.54s-4.58-3.26-4.58-4.54v-7.36Zm6.75.45c0-1.76-.99-2.59-2.18-2.59s-2.18.83-2.18,2.59v6.53c0,1.66.77,2.59,2.18,2.59s2.18-.86,2.18-2.59v-6.53Z"/><path d="m308.98,94h-2.4v-1.57c-1.02,1.38-2.34,1.82-3.42,1.82-2.82,0-3.33-2.14-3.33-3.68v-9.02c0-1.54.51-3.68,3.33-3.68,1.09,0,2.4.45,3.42,1.82v-8.1h2.4v22.4Zm-2.4-4.99v-5.89c0-.99-.38-2.91-2.34-2.91-1.54,0-2.02,1.25-2.02,2.46v6.78c0,1.22.48,2.46,2.02,2.46,1.95,0,2.34-1.92,2.34-2.91Z"/><path d="m319.47,89.55h2.4v.22c0,1.57-.74,4.48-4.42,4.48-3.97,0-4.64-3.23-4.64-4.61v-7.36c0-1.25.67-4.42,4.48-4.42s4.64,3.17,4.64,4.54v4.54h-6.72v2.53c0,1.7.77,2.43,2.24,2.43s2.02-.86,2.02-2.18v-.19Zm.06-4.38v-2.72c0-1.02-.48-2.24-2.14-2.24s-2.18,1.38-2.18,2.37v2.59h4.32Z"/><path d="m328.05,78.13v2.5c1.7-2.3,3.17-2.72,4.42-2.75v2.69h-.45c-1.76,0-3.97.7-3.97,4.19v9.25h-2.4v-15.87h2.4Z"/><path d="m334.96,78.13h2.4v1.57c1.02-1.38,2.34-1.82,3.42-1.82,2.82,0,3.33,2.14,3.33,3.68v12.45h-2.4v-11.33c0-1.22-.48-2.46-2.02-2.46-1.95,0-2.34,1.92-2.34,2.91v10.88h-2.4v-15.87Z"/><path d="m364.27,94l-1.12-4.99h-5.06l-1.09,4.99h-2.34l4.86-22.4h2.18l4.9,22.4h-2.34Zm-3.71-17.6l-2.14,10.56h4.38l-2.24-10.56Z"/><path d="m372.11,78.13v2.5c1.7-2.3,3.17-2.72,4.42-2.75v2.69h-.45c-1.76,0-3.97.7-3.97,4.19v9.25h-2.4v-15.87h2.4Z"/><path d="m381.84,73.3v4.83h2.24v1.92h-2.24v9.63c0,.38.03,1.25.64,1.76.45.38,1.12.38,1.5.38h.26v2.18h-.7c-.9,0-2.4-.03-3.26-.99-.8-.86-.83-2.11-.83-3.04v-9.92h-1.7v-1.92h1.7v-4.83h2.4Z"/><path d="m389.87,91.28v3.01l-2.75,2.46v-5.47h2.75Z"/><path d="m404.14,71.6v11.9l6.05-11.9h2.43l-4.58,8.93,5.5,13.47h-2.59l-4.38-11.17-2.43,4.74v6.43h-2.4v-22.4h2.4Z"/><path d="m420.97,96.82c-.67,2.75-1.79,3.71-4.25,3.71h-.54v-2.18h.45c1.5,0,1.98-.8,2.43-2.69l.45-1.89-4.67-15.65h2.53l3.2,11.55h.06l2.43-11.55h2.43l-4.51,18.69Z"/><path d="m427.98,82.35c0-1.18.67-4.48,4.58-4.48s4.58,3.3,4.58,4.45v7.39c0,1.28-.67,4.54-4.58,4.54s-4.58-3.26-4.58-4.54v-7.36Zm6.75.45c0-1.76-.99-2.59-2.18-2.59s-2.18.83-2.18,2.59v6.53c0,1.66.77,2.59,2.18,2.59s2.18-.86,2.18-2.59v-6.53Z"/><path d="m443.79,73.3v4.83h2.24v1.92h-2.24v9.63c0,.38.03,1.25.64,1.76.45.38,1.12.38,1.5.38h.26v2.18h-.7c-.9,0-2.4-.03-3.26-.99-.8-.86-.83-2.11-.83-3.04v-9.92h-1.7v-1.92h1.7v-4.83h2.4Z"/><path d="m449,82.35c0-1.18.67-4.48,4.58-4.48s4.58,3.3,4.58,4.45v7.39c0,1.28-.67,4.54-4.58,4.54s-4.58-3.26-4.58-4.54v-7.36Zm6.75.45c0-1.76-.99-2.59-2.18-2.59s-2.18.83-2.18,2.59v6.53c0,1.66.77,2.59,2.18,2.59s2.18-.86,2.18-2.59v-6.53Z"/></g><g><path d="m136.92,0h8l11.04,30.88h.32L166.76,0h8v56h-8V20.96h-.4l-8.4,25.28h-4.24l-8.4-25.28h-.4v35.04h-8V0Z"/><path d="m190.52,55.76c-1.49-.59-2.76-1.43-3.8-2.52-1.04-1.09-1.83-2.43-2.36-4-.53-1.57-.8-3.32-.8-5.24v-15.68c0-2.24.32-4.15.96-5.72.64-1.57,1.52-2.88,2.64-3.92,1.12-1.04,2.41-1.8,3.88-2.28,1.47-.48,3-.72,4.6-.72s3.13.24,4.6.72,2.76,1.24,3.88,2.28c1.12,1.04,2,2.35,2.64,3.92.64,1.57.96,3.48.96,5.72v15.68c0,1.92-.27,3.67-.8,5.24-.53,1.57-1.32,2.91-2.36,4-1.04,1.09-2.31,1.93-3.8,2.52-1.49.59-3.2.88-5.12.88s-3.63-.29-5.12-.88Zm8.16-8.24c.69-.85,1.04-2.13,1.04-3.84v-15.04c0-1.71-.35-2.99-1.04-3.84-.69-.85-1.71-1.28-3.04-1.28s-2.35.43-3.04,1.28c-.69.85-1.04,2.13-1.04,3.84v15.04c0,1.71.35,2.99,1.04,3.84.69.85,1.71,1.28,3.04,1.28s2.35-.43,3.04-1.28Z"/><path d="m216.52,0h8l11.04,30.88h.32L246.36,0h8v56h-8V20.96h-.4l-8.4,25.28h-4.24l-8.4-25.28h-.4v35.04h-8V0Z"/><path d="m283.48,56l-2.64-12h-10.24l-2.64,12h-8L272.2,0h7.04l12.24,56h-8Zm-7.92-40.4l-4.16,21.28h8.48l-4.32-21.28Z"/><path d="m305.08,0v26.96l12.72-26.96h8.4l-11.36,22.96,13.44,33.04h-8.72l-9.52-25.04-4.96,8.64v16.4h-8V0h8Z"/></g></g></svg>